<?xml version="1.0" encoding="UTF-8" standalone="no"?>
<!-- Created with Inkscape (http://www.inkscape.org/) -->

<svg
   width="320mm"
   height="240mm"
   viewBox="0 0 320 240"
   version="1.1"
   id="svg12"
   sodipodi:docname="info_qrcode.svg"
   inkscape:export-filename="X:\apps\projects\photo\qrcode_icon.png"
   inkscape:export-xdpi="25.4"
   inkscape:export-ydpi="25.4"
   inkscape:version="1.2-dev (c1616499, 2022-01-19)"
   xmlns:inkscape="http://www.inkscape.org/namespaces/inkscape"
   xmlns:sodipodi="http://sodipodi.sourceforge.net/DTD/sodipodi-0.dtd"
   xmlns="http://www.w3.org/2000/svg"
   xmlns:svg="http://www.w3.org/2000/svg">
  <sodipodi:namedview
     id="namedview14"
     pagecolor="#ffffff"
     bordercolor="#666666"
     borderopacity="1.0"
     inkscape:pageshadow="2"
     inkscape:pageopacity="0.0"
     inkscape:pagecheckerboard="0"
     inkscape:blackoutopacity="0.0"
     inkscape:document-units="mm"
     showgrid="false"
     inkscape:zoom="1.087256"
     inkscape:cx="249.71119"
     inkscape:cy="96.113515"
     inkscape:window-width="1198"
     inkscape:window-height="1008"
     inkscape:window-x="0"
     inkscape:window-y="0"
     inkscape:window-maximized="0"
     inkscape:current-layer="layer1" />
  <defs
     id="defs9" />
  <g
     inkscape:label="Calque 1"
     inkscape:groupmode="layer"
     id="layer1">
    <g
       style="fill:none;stroke:#ffffff"
       id="g8261"
       transform="matrix(0.34647276,0,0,0.31192489,87.310755,-4.7301808)">
      <path
         d="M 99.6,100 H 88.4 C 88.179086,100 88,99.820914 88,99.6 V 96 h 3.6 C 91.820914,96 92,95.820914 92,95.6 V 92 h 4 v 3.6 c 0,0.220914 0.179086,0.4 0.4,0.4 h 3.2 c 0.220914,0 0.4,0.179086 0.4,0.4 v 3.2 c 0,0.220914 -0.179086,0.4 -0.4,0.4 z m -20,0 H 76.4 C 76.179086,100 76,99.820914 76,99.6 V 96.4 C 76,96.179086 75.820914,96 75.6,96 H 72.4 C 72.179086,96 72,96.179086 72,96.4 v 3.2 c 0,0.220914 -0.179086,0.4 -0.4,0.4 H 64.4 C 64.179086,100 64,99.820914 64,99.6 V 96 h 3.6 C 67.820914,96 68,95.820914 68,95.6 V 92 h 7.6 C 75.820914,92 76,91.820914 76,91.6 V 84.4 C 76,84.179086 76.179086,84 76.4,84 H 80 v 7.6 c 0,0.220914 0.179086,0.4 0.4,0.4 h 3.2 C 83.820914,92 84,91.820914 84,91.6 V 84 h 7.6 C 91.820914,84 92,83.820914 92,83.6 V 76.4 C 92,76.179086 91.820914,76 91.6,76 H 80.4 C 80.179086,76 80,75.820914 80,75.6 V 72.4 C 80,72.179086 80.179086,72 80.4,72 h 7.2 C 87.820914,72 88,71.820914 88,71.6 V 68.4 C 88,68.179086 88.179086,68 88.4,68 h 3.2 c 0.220914,0 0.4,0.179086 0.4,0.4 v 3.2 c 0,0.220914 0.179086,0.4 0.4,0.4 h 3.2 C 95.820914,72 96,71.820914 96,71.6 V 64.4 C 96,64.179086 95.820914,64 95.6,64 H 92.4 C 92.179086,64 92,63.820914 92,63.6 V 60.4 C 92,60.179086 91.820914,60 91.6,60 H 84 V 48.4 C 84,48.179086 84.179086,48 84.4,48 h 3.2 c 0.220914,0 0.4,0.179086 0.4,0.4 v 3.2 c 0,0.220914 0.179086,0.4 0.4,0.4 h 7.2 C 95.820914,52 96,51.820914 96,51.6 V 48.4 C 96,48.179086 96.179086,48 96.4,48 h 3.2 c 0.220914,0 0.4,0.179086 0.4,0.4 v 7.2 c 0,0.220914 -0.179086,0.4 -0.4,0.4 H 96.4 C 96.179086,56 96,56.179086 96,56.4 v 3.2 c 0,0.220914 0.179086,0.4 0.4,0.4 h 3.2 c 0.220914,0 0.4,0.179086 0.4,0.4 v 15.2 c 0,0.220914 -0.179086,0.4 -0.4,0.4 H 96.4 C 96.179086,76 96,76.179086 96,76.4 v 3.2 c 0,0.220914 0.179086,0.4 0.4,0.4 h 3.2 c 0.220914,0 0.4,0.179086 0.4,0.4 v 3.2 c 0,0.220914 -0.179086,0.4 -0.4,0.4 H 96.4 C 96.179086,84 96,84.179086 96,84.4 V 88 H 92.4 C 92.179086,88 92,88.179086 92,88.4 V 92 H 88.4 C 88.179086,92 88,92.179086 88,92.4 V 96 H 80.4 C 80.179086,96 80,96.179086 80,96.4 v 3.2 c 0,0.220914 -0.179086,0.4 -0.4,0.4 z m -20,0 H 56.4 C 56.179086,100 56,99.820914 56,99.6 V 92 h 3.6 C 59.820914,92 60,91.820914 60,91.6 V 84.4 C 60,84.179086 59.820914,84 59.6,84 H 56.4 C 56.179086,84 56,84.179086 56,84.4 V 92 H 48.4 C 48.179086,92 48,91.820914 48,91.6 V 88.4 C 48,88.179086 48.179086,88 48.4,88 h 3.2 C 51.820914,88 52,87.820914 52,87.6 V 84.4 C 52,84.179086 51.820914,84 51.6,84 H 48.4 C 48.179086,84 48,83.820914 48,83.6 V 76.4 C 48,76.179086 48.179086,76 48.4,76 h 7.2 c 0.220914,0 0.4,0.179086 0.4,0.4 v 3.2 c 0,0.220914 0.179086,0.4 0.4,0.4 H 72 v 3.6 C 72,83.820914 71.820914,84 71.6,84 H 64.4 C 64.179086,84 64,84.179086 64,84.4 v 3.2 c 0,0.220914 0.179086,0.4 0.4,0.4 h 3.2 c 0.220914,0 0.4,0.179086 0.4,0.4 V 92 H 64.4 C 64.179086,92 64,92.179086 64,92.4 V 96 H 60.4 C 60.179086,96 60,96.179086 60,96.4 v 3.2 c 0,0.220914 -0.179086,0.4 -0.4,0.4 z m -16,0 H 16.4 C 16.179086,100 16,99.820914 16,99.6 V 72.4 C 16,72.179086 16.179086,72 16.4,72 h 27.2 c 0.220914,0 0.4,0.179086 0.4,0.4 v 27.2 c 0,0.220914 -0.179086,0.4 -0.4,0.4 z M 40,95.6 V 76.4 C 40,76.179086 39.820914,76 39.6,76 H 20.4 C 20.179086,76 20,76.179086 20,76.4 v 19.2 c 0,0.220914 0.179086,0.4 0.4,0.4 H 39.6 C 39.820914,96 40,95.820914 40,95.6 Z M 99.6,92 H 96 v -4 h 3.6 c 0.220914,0 0.4,0.179086 0.4,0.4 v 3.2 c 0,0.220914 -0.179086,0.4 -0.4,0.4 z m -64,0 H 24.4 C 24.179086,92 24,91.820914 24,91.6 V 80.4 C 24,80.179086 24.179086,80 24.4,80 h 11.2 c 0.220914,0 0.4,0.179086 0.4,0.4 v 11.2 c 0,0.220914 -0.179086,0.4 -0.4,0.4 z m 48,-8 H 80 V 80.4 C 80,80.179086 80.179086,80 80.4,80 h 3.2 c 0.220914,0 0.4,0.179086 0.4,0.4 V 84 Z m -8,-4 H 72 v -4 h 3.6 c 0.220914,0 0.4,0.179086 0.4,0.4 v 3.2 c 0,0.220914 -0.179086,0.4 -0.4,0.4 z m -4,-4 H 68.4 C 68.179086,76 68,75.820914 68,75.6 V 72 h 3.6 c 0.220914,0 0.4,0.179086 0.4,0.4 V 76 Z m -8,0 H 60.4 C 60.179086,76 60,75.820914 60,75.6 V 72.4 C 60,72.179086 60.179086,72 60.4,72 H 64 v 3.6 c 0,0.220914 -0.179086,0.4 -0.4,0.4 z m 4,-4 H 64 v -4 h 4 v 4 z m -12,0 H 48.4 C 48.179086,72 48,71.820914 48,71.6 V 68 h 7.6 c 0.220914,0 0.4,0.179086 0.4,0.4 v 3.2 c 0,0.220914 -0.179086,0.4 -0.4,0.4 z m 24,-4 H 68 V 64.4 C 68,64.179086 68.179086,64 68.4,64 h 7.2 C 75.820914,64 76,63.820914 76,63.6 V 52.4 C 76,52.179086 76.179086,52 76.4,52 h 3.2 c 0.220914,0 0.4,0.179086 0.4,0.4 v 7.2 c 0,0.220914 0.179086,0.4 0.4,0.4 H 84 v 3.6 C 84,63.820914 83.820914,64 83.6,64 H 80.4 C 80.179086,64 80,64.179086 80,64.4 v 3.2 c 0,0.220914 -0.179086,0.4 -0.4,0.4 z m -16,0 H 60.4 C 60.179086,68 60,67.820914 60,67.6 V 64 h 3.6 c 0.220914,0 0.4,0.179086 0.4,0.4 V 68 Z m -16,0 H 40.4 C 40.179086,68 40,67.820914 40,67.6 V 64 h 7.6 c 0.220914,0 0.4,0.179086 0.4,0.4 V 68 Z m -12,0 H 24.4 C 24.179086,68 24,67.820914 24,67.6 V 56 h 4 v 3.6 c 0,0.220914 0.179086,0.4 0.4,0.4 h 3.2 C 31.820914,60 32,59.820914 32,59.6 V 56.4 C 32,56.179086 31.820914,56 31.6,56 H 28 v -4 h 3.6 C 31.820914,52 32,51.820914 32,51.6 V 48.4 C 32,48.179086 32.179086,48 32.4,48 h 11.2 c 0.220914,0 0.4,0.179086 0.4,0.4 v 3.2 C 44,51.820914 43.820914,52 43.6,52 H 40.4 C 40.179086,52 40,52.179086 40,52.4 V 56 H 36.4 C 36.179086,56 36,56.179086 36,56.4 v 3.2 c 0,0.220914 0.179086,0.4 0.4,0.4 H 40 v 4 H 36.4 C 36.179086,64 36,64.179086 36,64.4 v 3.2 c 0,0.220914 -0.179086,0.4 -0.4,0.4 z m 24,-4 H 56.4 C 56.179086,64 56,63.820914 56,63.6 V 60 h 3.6 c 0.220914,0 0.4,0.179086 0.4,0.4 V 64 Z m 12,-4 H 68.4 C 68.179086,60 68,59.820914 68,59.6 V 56.4 C 68,56.179086 67.820914,56 67.6,56 H 64.4 C 64.179086,56 64,55.820914 64,55.6 V 52.4 C 64,52.179086 64.179086,52 64.4,52 h 3.2 C 67.820914,52 68,51.820914 68,51.6 V 48.4 C 68,48.179086 68.179086,48 68.4,48 h 3.2 c 0.220914,0 0.4,0.179086 0.4,0.4 v 11.2 c 0,0.220914 -0.179086,0.4 -0.4,0.4 z m -16,0 H 52.4 C 52.179086,60 52,59.820914 52,59.6 V 56.4 C 52,56.179086 52.179086,56 52.4,56 H 56 v 4 z m -12,0 H 40 v -4 h 3.6 c 0.220914,0 0.4,0.179086 0.4,0.4 v 3.2 c 0,0.220914 -0.179086,0.4 -0.4,0.4 z m 16,-4 H 56 V 48.4 C 56,48.179086 55.820914,48 55.6,48 H 52 v -4 h 3.6 C 55.820914,44 56,43.820914 56,43.6 V 40.4 C 56,40.179086 55.820914,40 55.6,40 H 52 V 36.4 C 52,36.179086 52.179086,36 52.4,36 h 3.2 C 55.820914,36 56,35.820914 56,35.6 V 32.4 C 56,32.179086 56.179086,32 56.4,32 H 60 v 11.6 c 0,0.220914 0.179086,0.4 0.4,0.4 H 64 v 3.6 C 64,47.820914 63.820914,48 63.6,48 H 60.4 C 60.179086,48 60,48.179086 60,48.4 v 7.2 c 0,0.220914 -0.179086,0.4 -0.4,0.4 z m -36,0 H 16.4 C 16.179086,56 16,55.820914 16,55.6 V 52.4 C 16,52.179086 16.179086,52 16.4,52 H 24 v 4 z m 28,-4 H 48.4 C 48.179086,52 48,51.820914 48,51.6 V 48.4 C 48,48.179086 48.179086,48 48.4,48 H 52 v 3.6 c 0,0.220914 -0.179086,0.4 -0.4,0.4 z m -24,0 H 24 V 48.4 C 24,48.179086 24.179086,48 24.4,48 h 3.2 c 0.220914,0 0.4,0.179086 0.4,0.4 V 52 Z m 72,-8 H 72.4 C 72.179086,44 72,43.820914 72,43.6 V 16.4 C 72,16.179086 72.179086,16 72.4,16 h 27.2 c 0.220914,0 0.4,0.179086 0.4,0.4 v 27.2 c 0,0.220914 -0.179086,0.4 -0.4,0.4 z m -32,0 H 64 V 32.4 C 64,32.179086 63.820914,32 63.6,32 H 60 V 28.4 C 60,28.179086 60.179086,28 60.4,28 h 3.2 C 63.820914,28 64,27.820914 64,27.6 V 24.4 C 64,24.179086 64.179086,24 64.4,24 h 3.2 c 0.220914,0 0.4,0.179086 0.4,0.4 v 19.2 c 0,0.220914 -0.179086,0.4 -0.4,0.4 z m -16,0 H 48.4 C 48.179086,44 48,43.820914 48,43.6 V 40.4 C 48,40.179086 48.179086,40 48.4,40 H 52 v 4 z m -8,0 H 16.4 C 16.179086,44 16,43.820914 16,43.6 V 16.4 C 16,16.179086 16.179086,16 16.4,16 h 27.2 c 0.220914,0 0.4,0.179086 0.4,0.4 V 43.6 C 44,43.820914 43.820914,44 43.6,44 Z M 96,39.6 V 20.4 C 96,20.179086 95.820914,20 95.6,20 H 76.4 C 76.179086,20 76,20.179086 76,20.4 v 19.2 c 0,0.220914 0.179086,0.4 0.4,0.4 h 19.2 c 0.220914,0 0.4,-0.179086 0.4,-0.4 z m -56,0 V 20.4 C 40,20.179086 39.820914,20 39.6,20 H 20.4 C 20.179086,20 20,20.179086 20,20.4 v 19.2 c 0,0.220914 0.179086,0.4 0.4,0.4 H 39.6 C 39.820914,40 40,39.820914 40,39.6 Z M 91.6,36 H 80.4 C 80.179086,36 80,35.820914 80,35.6 V 24.4 C 80,24.179086 80.179086,24 80.4,24 h 11.2 c 0.220914,0 0.4,0.179086 0.4,0.4 v 11.2 c 0,0.220914 -0.179086,0.4 -0.4,0.4 z m -56,0 H 24.4 C 24.179086,36 24,35.820914 24,35.6 V 24.4 C 24,24.179086 24.179086,24 24.4,24 h 11.2 c 0.220914,0 0.4,0.179086 0.4,0.4 v 11.2 c 0,0.220914 -0.179086,0.4 -0.4,0.4 z m 16,-4 H 48.4 C 48.179086,32 48,31.820914 48,31.6 V 28.4 C 48,28.179086 48.179086,28 48.4,28 H 52 v 3.6 c 0,0.220914 -0.179086,0.4 -0.4,0.4 z m 4,-4 H 52 V 24.4 C 52,24.179086 52.179086,24 52.4,24 h 3.2 c 0.220914,0 0.4,0.179086 0.4,0.4 v 3.2 c 0,0.220914 -0.179086,0.4 -0.4,0.4 z m 8,-8 H 60.4 C 60.179086,20 60,19.820914 60,19.6 V 16.4 C 60,16.179086 60.179086,16 60.4,16 h 3.2 c 0.220914,0 0.4,0.179086 0.4,0.4 v 3.2 c 0,0.220914 -0.179086,0.4 -0.4,0.4 z m -8,0 H 48.4 C 48.179086,20 48,19.820914 48,19.6 V 16.4 C 48,16.179086 48.179086,16 48.4,16 h 7.2 c 0.220914,0 0.4,0.179086 0.4,0.4 v 3.2 c 0,0.220914 -0.179086,0.4 -0.4,0.4 z"
         id="path8259"
         style="fill:none;stroke:#ffffff" />
    </g>
    <rect
       style="fill:#000000;stroke:#ffffff;stroke-width:0.195421;stroke-linecap:round"
       id="rect15910"
       width="18.774952"
       height="18.63484"
       x="97.833893"
       y="4.0409412" />
    <text
       xml:space="preserve"
       style="font-size:14.4403px;line-height:1.25;font-family:'go around the books';-inkscape-font-specification:'go around the books';fill:#ffffff;stroke:#ffffff;stroke-width:0.676886"
       x="97.598228"
       y="18.775015"
       id="text13061"
       inkscape:transform-center-x="-0.14016088"
       inkscape:transform-center-y="1.1208726"><tspan
         sodipodi:role="line"
         id="tspan13059"
         style="fill:#ffffff;stroke:#ffffff;stroke-width:0.676886"
         x="97.598228"
         y="18.775015">⚙️</tspan></text>
  </g>
</svg>
